<svg
  width="29"
  height="30"
  viewBox="12 0 29 30"
  fill="none"
  xmlns="http://www.w3.org/2000/svg"
>
  <g filter="url(#filter0_dd_2859_5307)">
    <rect
      x="12.1167"
      y="2"
      width="28"
      height="28"
      rx="8"
      fill="#FAFAFA"
      shapeRendering="crispEdges"
    />
    <g clipPath="url(#clip0_2859_5307)">
      <rect
        width="20"
        height="20"
        transform="translate(16.1167 6)"
        fill="white"
      />
      <path
        d="M30.9598 24.7533C30.8854 24.7927 30.8917 24.8052 30.9629 24.7689C30.9861 24.7595 31.0055 24.7464 31.0223 24.7308C31.0223 24.7177 31.0223 24.7177 30.9598 24.7533ZM31.1098 24.672C31.0742 24.7014 31.0742 24.7014 31.1167 24.682C31.1392 24.6689 31.1592 24.6564 31.1592 24.6527C31.1592 24.6358 31.1492 24.6395 31.1098 24.672ZM31.2073 24.6133C31.1717 24.6427 31.1717 24.6427 31.2142 24.6233C31.2373 24.6102 31.2567 24.5964 31.2567 24.5933C31.2567 24.5777 31.2467 24.5808 31.2073 24.6133ZM31.3061 24.5552C31.2704 24.5845 31.2704 24.5845 31.3117 24.5645C31.3348 24.552 31.3542 24.5389 31.3542 24.5352C31.3542 24.5195 31.3442 24.5227 31.3061 24.5552ZM31.4392 24.467C31.3711 24.5127 31.3473 24.542 31.4098 24.5095C31.4517 24.4839 31.5229 24.4277 31.5104 24.4277C31.4836 24.4377 31.4611 24.4545 31.4386 24.467H31.4392ZM25.4623 6.00704C25.4167 6.01016 25.2798 6.02266 25.1598 6.03266C22.3173 6.29016 19.6579 7.82016 17.9723 10.177C17.0404 11.4689 16.4354 12.9695 16.2073 14.5452C16.1267 15.0952 16.1167 15.2577 16.1167 16.0033C16.1167 16.7483 16.1267 16.9083 16.2073 17.4583C16.7517 21.2152 19.4242 24.3689 23.0467 25.5377C23.6986 25.7458 24.3817 25.8895 25.1598 25.9777C25.4623 26.0102 26.7704 26.0102 27.0729 25.9777C28.4179 25.8277 29.5536 25.4958 30.6773 24.9227C30.8498 24.8352 30.8823 24.812 30.8592 24.7927C30.3092 24.067 29.7692 23.3408 29.2286 22.6083L27.6304 20.4502L25.6286 17.4845C24.9611 16.492 24.2911 15.502 23.6104 14.5195C23.6036 14.5195 23.5948 15.8377 23.5911 17.4452C23.5842 20.2608 23.5842 20.3752 23.5486 20.4402C23.5129 20.5183 23.4542 20.5833 23.3761 20.6195C23.3142 20.6489 23.2586 20.6552 22.9629 20.6552H22.6248L22.5367 20.6002C22.4817 20.5645 22.4361 20.5152 22.4067 20.457L22.3642 20.3689L22.3673 16.4495L22.3742 12.5302L22.4361 12.452C22.4754 12.4039 22.5242 12.3645 22.5792 12.3352C22.6611 12.2958 22.6936 12.2895 23.0317 12.2895C23.4286 12.2895 23.4942 12.3052 23.5986 12.4195C24.4086 13.627 25.2161 14.8377 26.0104 16.052C27.3098 18.022 29.0836 20.7102 29.9554 22.0289L31.5411 24.4283L31.6192 24.3764C32.3811 23.8683 33.0742 23.2633 33.6723 22.5733C34.9323 21.1308 35.7498 19.3564 36.0267 17.4627C36.1073 16.9127 36.1173 16.7495 36.1173 16.0045C36.1173 15.2589 36.1073 15.0995 36.0267 14.5495C35.4823 10.7927 32.8098 7.63891 29.1873 6.46954C28.5098 6.25516 27.8129 6.10891 27.1073 6.03391C26.9179 6.01454 25.6254 5.99141 25.4629 6.00829L25.4623 6.00704ZM29.5542 12.0552C29.6486 12.1002 29.7198 12.1852 29.7523 12.2827C29.7692 12.3352 29.7723 13.422 29.7692 15.8702L29.7623 19.3852L29.1442 18.4352L28.5223 17.4845V14.9327C28.5223 13.2783 28.5292 12.3508 28.5379 12.3052C28.5673 12.2008 28.6386 12.1133 28.7336 12.0583C28.8111 12.0189 28.8411 12.0158 29.1504 12.0158C29.4398 12.0158 29.4892 12.0189 29.5542 12.0552Z"
          fill="black"
        />
      </g>
    </g>
    <defs>
      <filter
        id="filter0_dd_2859_5307"
        x="0.116699"
        y="0"
        width="52"
        height="52"
        filterUnits="userSpaceOnUse"
        colorInterpolationFilters="sRGB"
      >
        <feFlood floodOpacity="0" result="BackgroundImageFix" />
        <feColorMatrix
          in="SourceAlpha"
          type="matrix"
          values="0 0 0 0 0 0 0 0 0 0 0 0 0 0 0 0 0 0 127 0"
          result="hardAlpha"
        />
        <feMorphology
          radius="3"
          operator="erode"
          in="SourceAlpha"
          result="effect1_dropShadow_2859_5307"
        />
        <feOffset dy="10" />
        <feGaussianBlur stdDeviation="7.5" />
        <feComposite in2="hardAlpha" operator="out" />
        <feColorMatrix
          type="matrix"
          values="0 0 0 0 0 0 0 0 0 0 0 0 0 0 0 0 0 0 0.1 0"
        />
        <feBlend
          mode="normal"
          in2="BackgroundImageFix"
          result="effect1_dropShadow_2859_5307"
        />
        <feColorMatrix
          in="SourceAlpha"
          type="matrix"
          values="0 0 0 0 0 0 0 0 0 0 0 0 0 0 0 0 0 0 127 0"
          result="hardAlpha"
        />
        <feMorphology
          radius="4"
          operator="erode"
          in="SourceAlpha"
          result="effect2_dropShadow_2859_5307"
        />
        <feOffset dy="4" />
        <feGaussianBlur stdDeviation="3" />
        <feComposite in2="hardAlpha" operator="out" />
        <feColorMatrix
          type="matrix"
          values="0 0 0 0 0 0 0 0 0 0 0 0 0 0 0 0 0 0 0.1 0"
        />
        <feBlend
          mode="normal"
          in2="effect1_dropShadow_2859_5307"
          result="effect2_dropShadow_2859_5307"
        />
        <feBlend
          mode="normal"
          in="SourceGraphic"
          in2="effect2_dropShadow_2859_5307"
          result="shape"
        />
      </filter>
      <clipPath id="clip0_2859_5307">
        <rect
          width="20"
          height="20"
          fill="white"
          transform="translate(16.1167 6)"
        />
      </clipPath>
    </defs>
  </svg>