<svg
  width="24"
  height="24"
  viewBox="0 0 24 24"
  fill="none"
  xmlns="http://www.w3.org/2000/svg"
>
  <rect width="24" height="24" rx="6" fill="#27272A" />
  <g clipPath="url(#clip0_8154_2999)">
    <path
      d="M11.9999 7.00004C11.9999 6.78117 11.9568 6.56445 11.873 6.36224C11.7893 6.16003 11.6665 5.97629 11.5117 5.82153C11.357 5.66677 11.1732 5.544 10.971 5.46024C10.7688 5.37648 10.5521 5.33337 10.3332 5.33337C9.94409 5.33296 9.56708 5.46871 9.26754 5.71711C8.968 5.96551 8.76483 6.31089 8.69323 6.69337C8.47346 6.73455 8.26423 6.81952 8.07798 6.94323C7.89174 7.06694 7.73229 7.22686 7.60912 7.41347C7.48596 7.60008 7.40161 7.80956 7.36108 8.02944C7.32055 8.24933 7.32468 8.47512 7.37322 8.69338C7.07233 8.74679 6.79192 8.88191 6.56264 9.08395C6.33336 9.28599 6.16405 9.54718 6.07321 9.83897C5.98237 10.1308 5.97351 10.4419 6.04758 10.7384C6.12166 11.0349 6.27583 11.3053 6.49323 11.52C6.12758 11.6889 5.82141 11.9641 5.6148 12.3098C5.40819 12.6555 5.31075 13.0555 5.33525 13.4575C5.35974 13.8595 5.50502 14.2447 5.75208 14.5628C5.99914 14.8808 6.33646 15.1169 6.71989 15.24C6.64668 15.5166 6.6459 15.8074 6.71762 16.0843C6.78933 16.3613 6.93114 16.6151 7.12938 16.8214C7.32762 17.0277 7.57562 17.1795 7.84951 17.2621C8.12341 17.3448 8.41397 17.3555 8.69323 17.2934C8.76732 17.7026 8.99176 18.0694 9.32246 18.3216C9.65316 18.5739 10.0662 18.6933 10.4805 18.6566C10.8948 18.6198 11.2804 18.4295 11.5615 18.123C11.8426 17.8165 11.999 17.416 11.9999 17M11.9999 7.00004V17M11.9999 7.00004C11.9999 6.55801 12.1755 6.13409 12.488 5.82153C12.8006 5.50897 13.2245 5.33337 13.6666 5.33337C14.0557 5.33296 14.4327 5.46871 14.7322 5.71711C15.0318 5.96551 15.235 6.31089 15.3066 6.69337C15.5263 6.73455 15.7356 6.81952 15.9218 6.94323C16.108 7.06694 16.2675 7.22686 16.3907 7.41347C16.5138 7.60008 16.5982 7.80956 16.6387 8.02944C16.6792 8.24933 16.6751 8.47512 16.6266 8.69338C16.9275 8.74679 17.2079 8.88191 17.4371 9.08395C17.6664 9.28599 17.8357 9.54718 17.9266 9.83897C18.0174 10.1308 18.0263 10.4419 17.9522 10.7384C17.8781 11.0349 17.724 11.3053 17.5066 11.52C17.8722 11.6889 18.1784 11.9641 18.385 12.3098C18.5916 12.6555 18.689 13.0555 18.6645 13.4575C18.64 13.8595 18.4948 14.2447 18.2477 14.5628C18.0006 14.8808 17.6633 15.1169 17.2799 15.24C17.3531 15.5166 17.3539 15.8074 17.2822 16.0843C17.2105 16.3613 17.0686 16.6151 16.8704 16.8214C16.6722 17.0277 16.4242 17.1795 16.1503 17.2621C15.8764 17.3448 15.5858 17.3555 15.3066 17.2934C15.2325 17.7026 15.008 18.0694 14.6773 18.3216C14.3466 18.5739 13.9336 18.6933 13.5193 18.6566C13.105 18.6198 12.7194 18.4295 12.4383 18.123C12.1572 17.8165 12.0008 17.416 11.9999 17"
      stroke="#FAFAFA"
      strokeLinecap="round"
      strokeLinejoin="round"
    />
  </g>
  <defs>
    <clipPath id="clip0_8154_2999">
      <rect width="16" height="16" fill="white" transform="translate(4 4)" />
    </clipPath>
  </defs>
</svg>