<svg
  width="24"
  height="24"
  viewBox="0 0 24 24"
  fill="none"
  xmlns="http://www.w3.org/2000/svg"
>
  <rect width="24" height="24" rx="6" fill="#27272A" />
  <g clipPath="url(#clip0_8556_11986)">
    <path
      d="M10.6667 17.5089C8.60809 17.0124 6.9877 15.392 6.49124 13.3333M17.5092 13.3334C17.0127 15.392 15.3923 17.0124 13.3338 17.5089M13.3336 6.49109C15.3923 6.98757 17.0127 8.60799 17.5092 10.6666M6.49137 10.6667C6.98784 8.60803 8.60829 6.98757 10.667 6.49109M6.40016 13.3334H6.9335C7.30686 13.3334 7.49355 13.3334 7.63616 13.2607C7.7616 13.1968 7.86358 13.0948 7.9275 12.9694C8.00016 12.8268 8.00016 12.6401 8.00016 12.2667V11.7334C8.00016 11.36 8.00016 11.1733 7.9275 11.0307C7.86358 10.9053 7.7616 10.8033 7.63616 10.7394C7.49355 10.6667 7.30686 10.6667 6.9335 10.6667H6.40016C6.02679 10.6667 5.84011 10.6667 5.6975 10.7394C5.57206 10.8033 5.47007 10.9053 5.40616 11.0307C5.3335 11.1733 5.3335 11.36 5.3335 11.7334V12.2667C5.3335 12.6401 5.3335 12.8268 5.40616 12.9694C5.47007 13.0948 5.57206 13.1968 5.6975 13.2607C5.84011 13.3334 6.02679 13.3334 6.40016 13.3334ZM17.0668 13.3334H17.6002C17.9735 13.3334 18.1602 13.3334 18.3028 13.2607C18.4283 13.1968 18.5303 13.0948 18.5942 12.9694C18.6668 12.8268 18.6668 12.6401 18.6668 12.2667V11.7334C18.6668 11.36 18.6668 11.1733 18.5942 11.0307C18.5303 10.9053 18.4283 10.8033 18.3028 10.7394C18.1602 10.6667 17.9735 10.6667 17.6002 10.6667H17.0668C16.6935 10.6667 16.5068 10.6667 16.3642 10.7394C16.2387 10.8033 16.1367 10.9053 16.0728 11.0307C16.0002 11.1733 16.0002 11.36 16.0002 11.7334V12.2667C16.0002 12.6401 16.0002 12.8268 16.0728 12.9694C16.1367 13.0948 16.2387 13.1968 16.3642 13.2607C16.5068 13.3334 16.6935 13.3334 17.0668 13.3334ZM11.7335 8.00004H12.2668C12.6402 8.00004 12.8269 8.00004 12.9695 7.92738C13.0949 7.86346 13.1969 7.76148 13.2608 7.63603C13.3335 7.49343 13.3335 7.30674 13.3335 6.93337V6.40004C13.3335 6.02667 13.3335 5.83999 13.2608 5.69738C13.1969 5.57194 13.0949 5.46995 12.9695 5.40604C12.8269 5.33337 12.6402 5.33337 12.2668 5.33337H11.7335C11.3601 5.33337 11.1734 5.33337 11.0308 5.40604C10.9054 5.46995 10.8034 5.57194 10.7395 5.69738C10.6668 5.83999 10.6668 6.02667 10.6668 6.40004V6.93337C10.6668 7.30674 10.6668 7.49343 10.7395 7.63603C10.8034 7.76148 10.9054 7.86346 11.0308 7.92738C11.1734 8.00004 11.3601 8.00004 11.7335 8.00004ZM11.7335 18.6667H12.2668C12.6402 18.6667 12.8269 18.6667 12.9695 18.594C13.0949 18.5301 13.1969 18.4281 13.2608 18.3027C13.3335 18.1601 13.3335 17.9734 13.3335 17.6V17.0667C13.3335 16.6933 13.3335 16.5067 13.2608 16.364C13.1969 16.2386 13.0949 16.1366 12.9695 16.0727C12.8269 16 12.6402 16 12.2668 16H11.7335C11.3601 16 11.1734 16 11.0308 16.0727C10.9054 16.1366 10.8034 16.2386 10.7395 16.364C10.6668 16.5067 10.6668 16.6933 10.6668 17.0667V17.6C10.6668 17.9734 10.6668 18.1601 10.7395 18.3027C10.8034 18.4281 10.9054 18.5301 11.0308 18.594C11.1734 18.6667 11.3601 18.6667 11.7335 18.6667Z"
      stroke="#FAFAFA"
      strokeLinecap="round"
      strokeLinejoin="round"
    />
  </g>
  <defs>
    <clipPath id="clip0_8556_11986">
      <rect width="16" height="16" fill="white" transform="translate(4 4)" />
    </clipPath>
  </defs>
</svg>