<svg
  width="29"
  height="30"
  viewBox="12 0 29 30"
  fill="none"
  xmlns="http://www.w3.org/2000/svg"
>
  <g filter="url(#filter0_dd_2859_5313)">
    <rect
      x="12.1167"
      y="2"
      width="28"
      height="28"
      rx="8"
      fill="#FAFAFA"
      shapeRendering="crispEdges"
    />
    <rect x="16.1167" y="6" width="20" height="20" rx="5" fill="#18181B" />
    <mask
      id="mask0_2859_5313"
      maskUnits="userSpaceOnUse"
      x="20"
      y="12"
      width="13"
      height="8"
    >
      <path
        d="M20.1167 12.3999H32.1167V19.5999H20.1167V12.3999Z"
        fill="white"
      />
    </mask>
    <g mask="url(#mask0_2859_5313)">
      <path
        fillRule="evenodd"
        clipRule="evenodd"
        d="M26.1167 12.3999C24.5167 12.3999 23.5167 13.1999 23.1167 14.7999C23.7167 13.9999 24.4167 13.6999 25.2167 13.8999C25.6731 14.0139 25.9994 14.3452 26.3605 14.7117C26.9487 15.3088 27.6296 15.9999 29.1167 15.9999C30.7167 15.9999 31.7167 15.1999 32.1167 13.5999C31.5167 14.3999 30.8167 14.6999 31.0167 14.4999C30.5603 14.3859 30.234 14.0546 29.8729 13.6881C29.2847 13.091 28.6038 12.3999 27.1167 12.3999ZM23.1167 15.9999C21.5167 15.9999 20.5167 16.7999 20.1167 18.3999C20.7167 17.5999 21.4167 17.2999 22.2167 17.4999C22.6731 17.6141 22.9994 17.9452 23.3605 18.3117C23.9487 18.9088 24.6296 19.5999 26.1167 19.5999C27.7167 19.5999 28.7167 18.7999 29.1167 17.1999C28.5167 17.9999 27.8167 18.2999 27.0167 18.0999C26.5603 17.9859 26.234 17.6546 25.8729 17.2881C25.2847 16.691 24.6038 15.9999 23.1167 15.9999Z"
        fill="#FAFAFA"
      />
    </g>
  </g>
  <defs>
    <filter
      id="filter0_dd_2859_5313"
      x="0.116699"
      y="0"
      width="52"
      height="52"
      filterUnits="userSpaceOnUse"
      colorInterpolationFilters="sRGB"
    >
      <feFlood floodOpacity="0" result="BackgroundImageFix" />
      <feColorMatrix
        in="SourceAlpha"
        type="matrix"
        values="0 0 0 0 0 0 0 0 0 0 0 0 0 0 0 0 0 0 127 0"
        result="hardAlpha"
      />
      <feMorphology
        radius="3"
        operator="erode"
        in="SourceAlpha"
        result="effect1_dropShadow_2859_5313"
      />
      <feOffset dy="10" />
      <feGaussianBlur stdDeviation="7.5" />
      <feComposite in2="hardAlpha" operator="out" />
      <feColorMatrix
        type="matrix"
        values="0 0 0 0 0 0 0 0 0 0 0 0 0 0 0 0 0 0 0.1 0"
      />
      <feBlend
        mode="normal"
        in2="BackgroundImageFix"
        result="effect1_dropShadow_2859_5313"
      />
      <feColorMatrix
        in="SourceAlpha"
        type="matrix"
        values="0 0 0 0 0 0 0 0 0 0 0 0 0 0 0 0 0 0 127 0"
        result="hardAlpha"
      />
      <feMorphology
        radius="4"
        operator="erode"
        in="SourceAlpha"
        result="effect2_dropShadow_2859_5313"
      />
      <feOffset dy="4" />
      <feGaussianBlur stdDeviation="3" />
      <feComposite in2="hardAlpha" operator="out" />
      <feColorMatrix
        type="matrix"
        values="0 0 0 0 0 0 0 0 0 0 0 0 0 0 0 0 0 0 0.1 0"
      />
      <feBlend
        mode="normal"
        in2="effect1_dropShadow_2859_5313"
        result="effect2_dropShadow_2859_5313"
      />
      <feBlend
        mode="normal"
        in="SourceGraphic"
        in2="effect2_dropShadow_2859_5313"
        result="shape"
      />
    </filter>
  </defs>
</svg>