<svg
  width="24"
  height="24"
  viewBox="0 0 24 24"
  fill="none"
  xmlns="http://www.w3.org/2000/svg"
>
  <rect width="24" height="24" rx="6" fill="#FAFAFA" />
  <path
    d="M17.25 18.75V17.25C17.25 16.4544 16.9339 15.6913 16.357 15.1287C15.7801 14.5661 14.9901 14.25 14.25 14.25H9.75C9.0099 14.25 8.21991 14.5661 7.64304 15.1287C7.06618 15.6913 6.75 16.4544 6.75 17.25V18.75M15 8.25C15 9.90685 13.6569 11.25 12 11.25C10.3431 11.25 9 9.90685 9 8.25C9 6.59315 10.3431 5.25 12 5.25C13.6569 5.25 15 6.59315 15 8.25Z"
    stroke="#18181B"
    strokeWidth="1.125"
    strokeLinecap="round"
    strokeLinejoin="round"
  />
</svg>